<svg width="49" height="48" viewBox="0 0 49 48" fill="none" xmlns="http://www.w3.org/2000/svg">
	<rect x="30.5502" y="31.999" width="12" height="4" transform="rotate(-180 30.5502 31.999)" fill="#150F00"/>
	<rect x="34.5522" y="27.998" width="4" height="4" transform="rotate(-180 34.5522 27.998)" fill="#150F00"/>
	<rect x="32.5463" y="29.999" width="4" height="4" transform="rotate(-180 32.5463 29.999)" fill="#150F00"/>
	<rect x="20.5463" y="29.999" width="4" height="4" transform="rotate(-180 20.5463 29.999)" fill="#150F00"/>
	<rect x="18.5502" y="27.998" width="4" height="4" transform="rotate(-180 18.5502 27.998)" fill="#150F00"/>
	<rect x="26.5463" y="25.999" width="4" height="4" transform="rotate(-180 26.5463 25.999)" fill="#150F00"/>
	<rect x="24.5502" y="23.999" width="4" height="4" transform="rotate(-180 24.5502 23.999)" fill="#150F00"/>
	<rect x="24.5502" y="11.999" width="4" height="4" transform="rotate(-180 24.5502 11.999)" fill="#150F00"/>
	<rect x="28.5522" y="11.999" width="4" height="4" transform="rotate(-180 28.5522 11.999)" fill="#150F00"/>
	<rect x="28.5522" y="23.999" width="4" height="4" transform="rotate(-180 28.5522 23.999)" fill="#150F00"/>
	<rect x="26.5463" y="9.99805" width="4" height="4" transform="rotate(-180 26.5463 9.99805)" fill="#150F00"/>
	<rect x="22.5522" y="21.998" width="4" height="12" transform="rotate(-180 22.5522 21.998)" fill="#150F00"/>
	<rect x="30.5502" y="21.998" width="4" height="12" transform="rotate(-180 30.5502 21.998)" fill="#150F00"/>
	<rect x="26.5463" y="39.998" width="4" height="12" transform="rotate(-180 26.5463 39.998)" fill="#150F00"/>
	<rect x="18.5502" y="41.999" width="4" height="12" transform="rotate(-90 18.5502 41.999)" fill="#150F00"/>
</svg>
