<svg width="240" height="240" viewBox="0 0 240 240" fill="none" xmlns="http://www.w3.org/2000/svg">
<g id="dollar">
<rect id="Rectangle 30" width="60" height="20" transform="matrix(-1 0 0 1 150 40)" fill="black" fill-opacity="0.08"/>
<rect id="Rectangle 53" width="200" height="20" transform="matrix(-4.37114e-08 -1 -1 4.37114e-08 130 220)" fill="black" fill-opacity="0.08"/>
<rect id="Rectangle 33" width="20" height="20" transform="matrix(-1 0 0 1 160 50)" fill="black" fill-opacity="0.08"/>
<rect id="Rectangle 45" x="80" y="50" width="20" height="20" fill="black" fill-opacity="0.08"/>
<rect id="Rectangle 47" x="80" y="90" width="20" height="20" fill="black" fill-opacity="0.08"/>
<rect id="Rectangle 49" x="120" y="110" width="20" height="20" fill="black" fill-opacity="0.08"/>
<rect id="Rectangle 50" x="100" y="110" width="20" height="20" fill="black" fill-opacity="0.08"/>
<rect id="Rectangle 51" x="90" y="100" width="20" height="20" fill="black" fill-opacity="0.08"/>
<rect id="Rectangle 52" x="130" y="120" width="20" height="20" fill="black" fill-opacity="0.08"/>
<rect id="Rectangle 48" x="140" y="130" width="20" height="20" fill="black" fill-opacity="0.08"/>
<rect id="Rectangle 34" width="20" height="30" transform="matrix(-1 0 0 1 170 60)" fill="black" fill-opacity="0.08"/>
<rect id="Rectangle 46" x="70" y="60" width="20" height="40" fill="black" fill-opacity="0.08"/>
<rect id="Rectangle 40" width="60" height="20" transform="matrix(1 0 0 -1 90 200)" fill="black" fill-opacity="0.08"/>
<rect id="Rectangle 41" width="20" height="20" transform="matrix(1 0 0 -1 80 190)" fill="black" fill-opacity="0.08"/>
<rect id="Rectangle 43" width="20" height="20" transform="matrix(1 0 0 -1 140 190)" fill="black" fill-opacity="0.08"/>
<rect id="Rectangle 42" width="20" height="30" transform="matrix(1 0 0 -1 70 180)" fill="black" fill-opacity="0.08"/>
<rect id="Rectangle 44" width="20" height="40" transform="matrix(1 0 0 -1 150 180)" fill="black" fill-opacity="0.08"/>
</g>
</svg>
