<svg width="763" height="300" viewBox="0 0 763 300" fill="none" xmlns="http://www.w3.org/2000/svg">
<g clip-path="url(#clip0_172_295)">
<path d="M22.6347 40.4844V262.688C22.6347 270.796 29.2041 277.366 37.3128 277.366H447.786C448.349 277.366 448.922 277.335 449.476 277.265L566.84 277.366H630.794C639.315 277.366 646.538 271.088 647.725 262.647L653.409 222.235C654.053 217.688 657.675 214.156 662.232 213.633L686.609 210.847C687.705 210.716 684.124 218.352 686.619 224.146C688.218 227.859 688.832 229.519 688.782 233.714C688.731 238.291 685.854 245.152 688.983 247.376C692.112 249.599 703.238 244.981 703.872 244.881C715.311 243.14 771.719 173.372 714.878 87.9492C714.516 87.416 714.134 86.9029 713.711 86.4099C708.792 80.746 678.339 46.8023 637.202 53.9753C628.087 55.5649 619.868 48.2107 620.19 38.9653L620.23 37.8083C620.522 29.5085 613.872 22.6172 605.562 22.6172H37.3128C29.2041 22.6172 22.6347 29.1866 22.6347 37.2953V40.4643V40.4844Z" fill="#FCB637" stroke="white" stroke-width="45.2716" stroke-linecap="round" stroke-linejoin="round"/>
<path d="M22.6347 41.6016V263.805C22.6347 271.913 29.2041 278.483 37.3128 278.483H447.786C448.349 278.483 448.922 278.453 449.476 278.382L566.84 278.483H630.794C639.315 278.483 646.538 272.205 647.725 263.765L653.409 223.352C654.053 218.805 657.675 215.274 662.232 214.75L686.609 211.964C687.705 211.833 684.124 219.469 686.619 225.264C688.218 228.976 688.832 230.636 688.782 234.831C688.731 239.408 685.854 246.27 688.983 248.493C692.112 250.716 703.238 246.099 703.872 245.998C715.311 244.258 771.719 174.489 714.878 89.0664C714.516 88.5332 714.134 88.0201 713.711 87.5271C708.792 81.8631 678.339 47.9195 637.202 55.0925C628.087 56.6821 619.868 49.3279 620.19 40.0825L620.23 38.9255C620.522 30.6257 613.872 23.7344 605.562 23.7344H37.3128C29.2041 23.7344 22.6347 30.3038 22.6347 38.4124V41.5815V41.6016Z" fill="#FCB637" stroke="black" stroke-width="7.04225" stroke-linecap="round" stroke-linejoin="round"/>
<path d="M50.1401 134.961V57.4966H84.9993C93.9228 57.4966 101.156 59.5087 106.689 63.5328C112.223 67.5569 114.989 73.8044 114.989 82.2954C114.989 90.7863 112.223 97.1042 106.689 101.048C101.156 104.992 93.9228 106.963 84.9993 106.963H70.7236V134.961H50.1401ZM84.114 90.1425C90.7538 90.1425 94.0737 87.5268 94.0737 82.2853C94.0737 77.0439 90.7538 74.3175 84.114 74.3175H70.7236V90.1425H84.114Z" fill="black"/>
<path d="M176.961 134.961H117.977V57.4965H175.19V74.7601H138.56V87.3758H173.419V104.197H138.56V117.698H176.961V134.961ZM154.828 51.1887H138.56L147.413 33.4824H169.103L154.828 51.1887Z" fill="black"/>
<path d="M182.495 134.961V57.4966H219.678C227.646 57.4966 234.084 59.2672 238.994 62.8085C243.903 66.3497 246.358 71.5912 246.358 78.5227C246.358 83.6133 244.899 87.7581 241.982 90.9775C239.064 94.1867 235.432 96.4201 231.086 97.6777C240.312 99.1565 244.919 104.941 244.919 115.052V134.971H224.225V116.823C224.225 113.06 223.38 110.404 221.68 108.855C219.98 107.305 217.183 106.531 213.269 106.531H202.646V134.971H182.505L182.495 134.961ZM215.251 90.0318C222.112 90.0318 225.543 87.3759 225.543 82.064C225.543 76.7521 222.112 74.3175 215.251 74.3175H202.636V90.0318H215.251Z" fill="black"/>
<path d="M251.87 57.4966H272.453V134.961H251.87V57.4966Z" fill="black"/>
<path d="M316.94 137.064C309.345 137.064 302.554 135.464 296.578 132.255C290.602 129.046 285.914 124.378 282.524 118.251C279.134 112.124 277.433 104.79 277.433 96.229C277.433 87.6677 279.134 80.5349 282.524 74.3779C285.914 68.221 290.602 63.5128 296.578 60.2633C302.554 57.0138 309.345 55.394 316.94 55.394C324.536 55.394 331.377 57.054 337.474 60.3739C343.56 63.6938 348.359 68.4524 351.86 74.6496C355.361 80.8468 357.112 88.0399 357.112 96.229C357.112 104.418 355.361 111.923 351.86 118.09C348.359 124.247 343.56 128.955 337.474 132.195C331.387 135.444 324.546 137.064 316.94 137.064ZM316.94 119.8C322.544 119.8 327.071 117.748 330.492 113.654C333.922 109.559 335.643 103.754 335.643 96.219C335.643 88.6838 333.922 82.9796 330.492 78.8447C327.061 74.7099 322.544 72.6476 316.94 72.6476C311.337 72.6476 306.91 74.6999 303.661 78.7844C300.411 82.8789 298.792 88.6938 298.792 96.219C298.792 103.744 300.411 109.549 303.661 113.654C306.91 117.748 311.337 119.8 316.94 119.8Z" fill="black"/>
<path d="M362.092 134.961V57.4966H392.192C405.844 57.4966 416.337 60.7763 423.671 67.3457C431.015 73.9151 434.687 83.573 434.687 96.3396C434.687 104.086 433.068 110.857 429.818 116.641C426.569 122.436 421.76 126.933 415.372 130.142C408.993 133.352 401.186 134.961 391.971 134.961H362.092ZM390.311 117.698C397.394 117.698 402.977 115.977 407.072 112.557C411.166 109.126 413.219 103.724 413.219 96.3396C413.219 88.9553 411.378 83.9855 407.685 80.2934C403.993 76.6012 398.39 74.7602 390.864 74.7602H382.675V117.698H390.311Z" fill="black"/>
<path d="M498.541 134.961H439.557V57.4966H496.77V74.7602H460.14V87.3759H494.999V104.197H460.14V117.698H498.541V134.961Z" fill="black"/>
<path d="M50.1401 248.221V170.756H80.2407C93.8927 170.756 104.386 174.036 111.72 180.605C119.064 187.175 122.736 196.833 122.736 209.599C122.736 217.346 121.116 224.117 117.867 229.901C114.617 235.696 109.808 240.193 103.42 243.402C97.0415 246.611 89.2347 248.221 80.0194 248.221H50.1401ZM78.3594 230.958C85.4419 230.958 91.0254 229.237 95.12 225.817C99.2146 222.386 101.267 216.984 101.267 209.599C101.267 202.215 99.4259 197.245 95.7337 193.553C92.0415 189.861 86.4379 188.02 78.9128 188.02H70.7236V230.958H78.3594Z" fill="black"/>
<path d="M186.589 248.221H127.605V170.756H184.818V188.02H148.188V200.636H183.048V217.456H148.188V230.957H186.589V248.221ZM164.456 164.448H148.188L157.042 146.742H178.732L164.456 164.448Z" fill="black"/>
<path d="M227.424 250.324C219.608 250.324 212.777 248.684 206.952 245.404C201.127 242.125 196.62 237.386 193.451 231.189C190.282 224.992 188.692 217.648 188.692 209.167C188.692 200.686 190.443 193.604 193.954 187.477C197.455 181.35 202.233 176.682 208.29 173.473C214.336 170.263 221.167 168.654 228.762 168.654C235.553 168.654 241.599 169.891 246.911 172.366C252.223 174.841 256.499 178.453 259.748 183.211C262.998 187.97 264.879 193.674 265.392 200.314H244.255C243.742 195.817 242.153 192.255 239.497 189.63C236.841 187.014 233.229 185.706 228.652 185.706C223.189 185.706 218.732 187.748 215.261 191.843C211.791 195.938 210.06 201.712 210.06 209.157C210.06 216.601 211.7 222.587 214.98 226.863C218.259 231.139 222.676 233.282 228.209 233.282C232.787 233.282 236.549 231.863 239.497 229.016C242.445 226.179 244.185 222.286 244.698 217.346H265.724C265.211 223.764 263.38 229.459 260.241 234.449C257.102 239.428 252.736 243.322 247.123 246.119C241.519 248.925 234.95 250.324 227.424 250.324Z" fill="black"/>
<path d="M328.681 248.221H269.697V170.756H326.911V188.02H290.281V200.636H325.14V217.456H290.281V230.957H328.681V248.221ZM308.983 164.448H292.605L278.44 146.742H300.462L308.983 164.448Z" fill="black"/>
<path d="M365.422 250.324C358.491 250.324 352.404 249.167 347.163 246.843C341.921 244.519 337.797 241.159 334.768 236.772C331.74 232.386 330.08 227.165 329.789 221.108H351.147C351.438 225.092 352.958 228.151 355.684 230.293C358.41 232.436 361.881 233.503 366.086 233.503C369.406 233.503 372.153 232.839 374.326 231.511C376.499 230.183 377.595 228.261 377.595 225.756C377.595 223.835 376.881 222.305 375.443 221.169C374.004 220.022 371.77 219.157 368.742 218.573L355.573 216.138C348.561 214.881 342.917 212.416 338.642 208.724C334.366 205.032 332.223 199.981 332.223 193.563C332.223 188.623 333.612 184.267 336.368 180.505C339.135 176.742 342.948 173.825 347.817 171.762C352.686 169.7 358.149 168.664 364.195 168.664C374.447 168.664 382.434 171.058 388.149 175.857C393.863 180.656 396.982 187.074 397.495 195.112H376.137C375.915 192.084 374.748 189.649 372.656 187.808C370.553 185.967 367.505 185.042 363.521 185.042C360.352 185.042 357.746 185.666 355.724 186.923C353.692 188.181 352.676 189.911 352.676 192.124C352.676 194.046 353.471 195.484 355.06 196.44C356.65 197.396 359.175 198.171 362.646 198.764L374.819 200.867C381.75 201.973 387.384 204.388 391.7 208.12C396.016 211.843 398.169 217.134 398.169 224.006C398.169 229.026 396.931 233.523 394.467 237.507C391.992 241.491 388.31 244.629 383.4 246.913C378.491 249.197 372.505 250.344 365.412 250.344L365.422 250.324Z" fill="black"/>
<path d="M637.323 118.272C647.202 107.115 658.752 106.834 671.408 113.876C686.639 122.357 694.315 139.721 683.56 155.043C673.953 168.735 664.818 168.323 650.744 160.576C646.216 158.081 632.736 144.168 631.981 139.52C630.834 132.488 632.494 123.725 637.323 118.272Z" fill="black"/>
<path d="M619.475 60.646C614.596 53.3422 638.238 50.6661 642.503 50.636C737.594 49.8412 775.763 179.288 714.133 243.946C708.248 250.123 689.878 258.594 684.173 249.036C680.441 242.779 685.32 238.714 685.34 234.046C685.35 230.676 682.041 226.27 681.799 222.708C681.608 219.952 683.067 209.147 686.266 208.634C692.604 207.618 689.033 218.815 689.163 221.572C689.365 225.686 691.849 228.966 691.829 234.046C691.809 242.075 686.125 251.209 699.606 244.378C722.081 232.99 736.246 191.934 737.825 168.151C741.528 112.618 695.753 52.648 636.397 58.3422C633.298 58.634 620.833 62.7084 619.455 60.636L619.475 60.646Z" fill="#010101"/>
<path d="M589.264 90.8373C598.469 89.9822 616.447 94.8011 608.791 106.602C606.196 110.606 590.371 127.598 586.507 129.117C579.536 131.863 555.723 132.477 559.878 119.972C571.377 106.884 568.509 92.7588 589.274 90.8373H589.264Z" fill="black"/>
<path d="M586.084 146.129C578.448 138.533 594.072 129.107 598.277 124.71C602.845 119.932 615.42 99.982 619.857 114.328C621.426 119.388 621.024 145.052 618.287 149.63C611.748 160.555 601.97 147.437 598.64 146.622C595.953 145.968 589.716 149.741 586.094 146.139L586.084 146.129Z" fill="#010101"/>
<path d="M456.004 165.485C457.252 166.612 458.55 171.159 458.379 173.03C457.624 181.179 439.385 192.859 433.409 188.533C427.433 184.207 424.666 152.578 440.662 155.897C445.411 156.883 446.819 162.396 448.882 163.604C450.823 164.741 454.234 163.885 456.004 165.495V165.485Z" fill="#010101"/>
<path d="M493.701 218.473C494.334 217.849 495.27 212.487 497.151 210.113C506.085 198.855 516.286 214.75 516.457 224.408C516.527 228.372 515.26 240.586 512.131 242.447C503.348 247.678 474.395 240.847 481.809 225.887C485.3 218.835 491.9 220.254 493.701 218.473Z" fill="#010101"/>
<path d="M532.513 190.847C526.386 184.328 535.088 179.137 535.752 176.602C536.778 172.708 532.342 167.809 537.131 161.924C544.102 153.362 557.473 167.256 562.07 173.171C566.95 179.459 570.34 185.264 560.611 189.057C554.253 191.531 537.583 196.25 532.513 190.847Z" fill="#010101"/>
<path d="M590.812 221.169C598.589 216.742 601.597 226.42 603.901 227.658C607.442 229.569 613.247 226.4 617.845 232.437C624.535 241.229 607.895 250.958 601.064 254.046C593.81 257.316 587.372 259.257 585.963 248.905C585.048 242.145 584.364 224.841 590.812 221.169Z" fill="#010101"/>
<path d="M704.203 206.079C696.306 207.598 696.708 196.904 693.68 191.089C690.229 184.469 683.338 180.525 683.257 171.904C683.177 162.457 690.873 153.302 691.668 145.656C692.412 138.473 687.674 126.099 694.565 119.429C703.539 110.747 698.197 128.715 697.966 130.868C697.422 135.888 699.032 140.938 698.66 145.234C697.925 153.785 689.998 163.634 690.41 171.884C690.813 179.962 708.247 194.127 704.193 206.069L704.203 206.079Z" fill="#020202"/>
<path d="M628.801 150.163C634.425 148.422 636.407 161.37 632.514 162.577C626.568 163.915 625.079 151.32 628.801 150.163Z" fill="#151515"/>
<path d="M648.992 216.43L669.445 213.935" stroke="black" stroke-width="7.04225" stroke-linecap="round" stroke-linejoin="round"/>
</g>
<defs>
<clipPath id="clip0_172_295">
<rect width="762.495" height="300" fill="white"/>
</clipPath>
</defs>
</svg>
