<svg xmlns="http://www.w3.org/2000/svg" fill="none" viewBox="0 0 1037 453"><g clip-path="url(#a)"><path fill="#FCB637" stroke="#fff" stroke-linecap="round" stroke-linejoin="round" stroke-width="60.362" d="M32.963 105.534 48.47 401.399c.566 10.796 9.771 19.085 20.568 18.519l546.547-28.643a17.98 17.98 0 0 0 2.243-.252l156.278-8.056 85.155-4.463c11.346-.594 20.526-9.457 21.518-20.779l4.748-54.206a13.424 13.424 0 0 1 11.148-12.068l32.262-5.412c1.451-.251-2.785 10.166.942 17.708 2.389 4.831 3.322 6.999 3.547 12.588.253 6.099-3.099 15.435 1.222 18.177 4.321 2.742 18.814-4.183 19.651-4.361 15.109-3.116 85.352-99.949 3.704-209.723a22.997 22.997 0 0 0-1.662-1.968c-6.945-7.199-49.862-50.27-104.135-37.848-12.026 2.752-23.483-6.466-23.699-18.8l-.028-1.542c-.19-11.072-9.526-19.784-20.59-19.204L51.26 80.719c-10.796.566-19.085 9.772-18.52 20.568l.222 4.22.001.027Z"/><path fill="#FCB637" stroke="#000" stroke-linecap="round" stroke-linejoin="round" stroke-width="9.39" d="m33.041 107.021 15.506 295.865c.566 10.796 9.771 19.085 20.568 18.519l546.547-28.643c.75-.039 1.512-.119 2.243-.252l156.279-8.056 85.154-4.463c11.346-.594 20.526-9.457 21.518-20.779l4.748-54.206a13.424 13.424 0 0 1 11.148-12.068l32.262-5.412c1.451-.251-2.785 10.166.942 17.708 2.389 4.831 3.322 6.999 3.548 12.588.252 6.099-3.1 15.435 1.221 18.177 4.321 2.742 18.814-4.183 19.651-4.361 15.109-3.115 85.344-99.949 3.704-209.723a22.997 22.997 0 0 0-1.662-1.968c-6.945-7.199-49.862-50.27-104.135-37.848-12.026 2.752-23.483-6.466-23.699-18.8l-.027-1.542c-.191-11.072-9.526-19.784-20.591-19.204L51.338 82.206c-10.796.566-19.085 9.772-18.52 20.568l.222 4.22.001.027Z"/><path fill="#000" d="m76.18 229.411-5.406-103.145 46.415-2.432c11.882-.623 21.654 1.551 29.302 6.523 7.648 4.972 11.768 13.098 12.36 24.404.593 11.305-2.65 19.911-9.742 25.548-7.093 5.637-16.586 8.767-28.468 9.39l-19.008.996 1.954 37.28-27.407 1.436Zm42.108-62.047c8.841-.464 13.079-4.178 12.714-11.157-.366-6.979-4.977-10.378-13.818-9.914l-17.83.934 1.105 21.071 17.829-.934ZM245.042 220.561l-78.538 4.116-5.405-103.144 76.179-3.993 1.205 22.987-48.773 2.556.881 16.798 46.415-2.433 1.174 22.397-46.416 2.433.943 17.977 51.13-2.68 1.205 22.986Zm-35.316-109.999-21.661 1.135 10.553-24.193 28.88-1.514-17.772 24.572ZM252.41 220.175l-5.405-103.144 49.509-2.595c10.61-.556 19.306 1.352 26.09 5.725 6.784 4.372 10.419 11.18 10.902 20.41.356 6.778-1.298 12.398-4.958 16.889-3.66 4.476-8.34 7.704-14.039 9.681 12.387 1.326 18.925 8.706 19.631 22.169l1.39 26.523-27.555 1.444-1.266-24.165c-.263-5.01-1.573-8.488-3.945-10.432-2.372-1.944-6.15-2.781-11.361-2.508l-14.145.742 1.984 37.869-26.817 1.405-.015-.013Zm40.481-62.109c9.135-.479 13.518-4.255 13.147-11.328-.37-7.072-5.108-10.075-14.244-9.596l-16.798.88 1.097 20.924 16.798-.88ZM339.378 112.19l27.407-1.437 5.406 103.145-27.407 1.436-5.406-103.144ZM431.572 213.593c-10.113.53-19.267-1.126-27.447-4.982-8.181-3.856-14.749-9.745-19.691-17.666-4.942-7.921-7.718-17.568-8.315-28.967-.597-11.4 1.169-21.016 5.253-29.45 4.085-8.435 9.999-15.031 17.729-19.775 7.73-4.744 16.659-7.374 26.772-7.904 10.114-.53 19.339 1.203 27.688 5.198 8.336 3.996 15.058 9.997 20.152 18.004 5.094 8.007 7.926 17.463 8.498 28.367.571 10.904-1.236 21.019-5.467 29.474-4.232 8.443-10.293 15.047-18.171 19.785-7.878 4.751-16.874 7.385-27.001 7.916Zm-1.204-22.987c7.461-.391 13.346-3.439 17.614-9.13 4.283-5.691 6.168-13.54 5.642-23.574-.525-10.033-3.214-17.508-8.071-22.774-4.856-5.266-11.014-7.697-18.476-7.306-7.461.391-13.212 3.433-17.253 9.098-4.041 5.679-5.792 13.534-5.267 23.554.525 10.02 3.087 17.636 7.7 22.874 4.612 5.226 10.65 7.649 18.111 7.258ZM491.545 207.642l-5.405-103.144 40.079-2.101c18.177-.952 32.378 2.682 42.601 10.918 10.237 8.234 15.801 20.838 16.692 37.837.54 10.314-1.144 19.442-5.067 27.371-3.922 7.943-10.012 14.266-18.294 18.985-8.269 4.718-18.551 7.406-30.821 8.049l-39.785 2.085Zm36.37-24.955c9.43-.494 16.745-3.175 21.958-8.015 5.212-4.853 7.568-12.19 7.053-22.022-.516-9.832-3.314-16.321-8.487-20.98-5.174-4.658-12.764-6.719-22.784-6.194l-10.904.572 2.997 57.172 10.167-.533ZM673.227 198.121l-78.537 4.116-5.406-103.145 76.18-3.992 1.205 22.986-48.773 2.556.88 16.798 46.415-2.432 1.174 22.397-46.415 2.432.942 17.977 51.13-2.68 1.205 22.987ZM84.083 380.217l-5.406-103.145 40.079-2.101c18.178-.952 32.378 2.683 42.602 10.918 10.237 8.235 15.8 20.838 16.691 37.837.541 10.314-1.143 19.442-5.066 27.372-3.923 7.942-10.012 14.265-18.294 18.984-8.269 4.719-18.552 7.407-30.822 8.05l-39.784 2.085Zm36.369-24.956c9.431-.494 16.745-3.174 21.958-8.015 5.213-4.853 7.569-12.19 7.053-22.022-.515-9.832-3.313-16.321-8.487-20.98-5.174-4.658-12.763-6.718-22.783-6.193l-10.904.571 2.996 57.172 10.167-.533ZM265.765 370.696l-78.537 4.116-5.406-103.145 76.18-3.993 1.205 22.987-48.773 2.556.88 16.798 46.415-2.433 1.174 22.398-46.415 2.432.942 17.977 51.131-2.68 1.204 22.987Zm-35.315-110-21.661 1.136 10.553-24.194 28.88-1.514-17.772 24.572ZM320.285 370.646c-10.409.545-19.619-1.162-27.603-5.122-7.985-3.961-14.317-9.955-18.969-17.986-4.652-8.03-7.281-17.698-7.873-28.99-.592-11.293 1.245-20.845 5.492-29.248 4.235-8.402 10.272-14.951 18.112-19.647 7.826-4.695 16.81-7.315 26.923-7.845 9.042-.474 17.179.752 24.425 3.677 7.245 2.924 13.19 7.435 17.849 13.544 4.659 6.109 7.562 13.573 8.708 22.379l-28.144 1.475c-.997-5.952-3.362-10.583-7.081-13.894-3.719-3.298-8.619-4.787-14.714-4.468-7.274.381-13.066 3.412-17.401 9.106-4.336 5.694-6.237 13.504-5.718 23.416.52 9.913 3.121 17.769 7.786 23.233 4.666 5.464 10.696 8.009 18.063 7.623 6.095-.319 11.006-2.471 14.732-6.467 3.727-3.983 5.773-9.289 6.111-15.902l27.997-1.467c-.235 8.582-2.276 16.292-6.107 23.155-3.832 6.849-9.374 12.338-16.654 16.454-7.265 4.128-15.915 6.449-25.934 6.974ZM454.962 360.78l-78.537 4.116-5.406-103.144 76.18-3.993 1.205 22.987-48.773 2.556.88 16.798 46.415-2.433 1.174 22.397-46.415 2.433.942 17.976 51.13-2.679 1.205 22.986Zm-32.074-110.169-21.808 1.143-20.096-22.587 29.323-1.537 12.581 22.981ZM504.03 361.016c-9.23.483-17.415-.632-24.556-3.361-7.141-2.728-12.868-6.915-17.206-12.544-4.338-5.629-6.912-12.465-7.724-20.509l28.439-1.49c.666 5.284 2.903 9.25 6.682 11.913 3.78 2.663 8.476 3.841 14.075 3.547 4.421-.231 8.031-1.307 10.832-3.227s4.127-4.555 3.952-7.89c-.134-2.559-1.192-4.545-3.187-5.958-1.995-1.427-5.03-2.423-9.102-2.989l-17.705-2.323c-9.424-1.185-17.111-4.073-23.062-8.691-5.951-4.617-9.156-11.192-9.604-19.739-.345-6.577 1.2-12.474 4.608-17.676 3.421-5.203 8.294-9.354 14.634-12.44 6.339-3.085 13.541-4.846 21.591-5.268 13.65-.716 24.453 1.915 32.397 7.906 7.943 5.991 12.544 14.319 13.788 24.987l-28.439 1.49c-.506-4.017-2.23-7.177-5.144-9.482-2.928-2.305-7.052-3.325-12.356-3.047-4.22.222-7.646 1.234-10.251 3.05-2.618 1.816-3.85 4.191-3.696 7.138.135 2.558 1.293 4.418 3.476 5.58 2.184 1.162 5.6 2.017 10.263 2.565l16.355 1.95c9.307.99 16.977 3.812 22.984 8.48 6.006 4.655 9.242 11.551 9.721 20.7.351 6.685-.983 12.759-3.987 18.235-3.017 5.478-7.701 9.914-14.079 13.297-6.377 3.384-14.267 5.328-23.711 5.823l.012-.027ZM856.853 166.216c12.375-15.545 27.734-16.726 45.077-8.233 20.872 10.23 32.305 32.815 19.054 53.966-11.837 18.902-24.029 18.99-43.31 9.658-6.202-3.006-25.123-20.591-26.452-26.727-2.017-9.284-.419-21.067 5.631-28.664Z"/><path fill="#010101" d="M829.067 90.731c-7.006-9.384 24.286-14.597 29.964-14.935 126.558-7.694 186.409 162.002 108.865 252.395-7.406 8.635-31.275 21.196-39.537 8.868-5.406-8.071.807-13.823.508-20.04-.222-4.488-4.936-10.125-5.506-14.85-.447-3.657.741-18.145 4.965-19.052 8.368-1.795 4.394 13.364 4.761 17.025.555 5.464 4.092 9.658 4.42 16.424.534 10.691-6.397 23.251 11.076 13.215 29.13-16.732 45.126-72.388 45.57-104.165 1.054-74.201-64.08-150.857-142.716-139.133-4.105.605-20.418 6.9-22.397 4.236l.027.012Z"/><path fill="#000" d="M790.947 133.039c12.197-1.781 36.471 3.381 27.101 19.628-3.177 5.513-23.062 29.242-28.1 31.534-9.092 4.144-40.756 6.622-36.096-10.318 14.398-18.23 9.594-36.837 37.108-40.844h-.013Z"/><path fill="#010101" d="M790.572 206.882c-10.698-9.581 9.448-23.222 14.74-29.37 5.748-6.681 21.101-34.122 28.009-15.33 2.443 6.629 3.698 40.829.374 47.114-7.945 15.004-21.881-1.781-26.371-2.634-3.623-.683-11.665 4.775-16.738.233l-.014-.013ZM722.362 270.163c-8.613-8.253 2.612-15.772 3.319-19.194 1.095-5.256-5.155-11.47.811-19.64 8.685-11.886 27.458 5.68 33.992 13.236 6.936 8.031 11.855 15.524-.834 21.253-8.293 3.739-30.16 11.184-37.288 4.345ZM802.103 306.468c10.046-6.437 14.727 6.24 17.881 7.727 4.848 2.298 12.356-2.327 18.899 5.389 9.522 11.241-11.955 25.356-20.835 29.945-9.43 4.86-17.868 7.894-20.466-5.791-1.69-8.938-3.809-31.931 4.521-37.27Z"/><path fill="#020202" d="M952.031 278.463c-10.409 2.574-10.62-11.693-15.057-19.225-5.057-8.573-14.508-13.343-15.217-24.817-.766-12.573 8.842-25.3 9.367-35.536.49-9.616-6.683-25.762 2.028-35.124 11.343-12.187 5.484 12.11 5.326 14.993-.373 6.722 2.122 13.335 1.926 19.08-.381 11.438-10.249 25.105-9.124 36.061 1.099 10.728 25.302 28.372 20.737 44.556l.014.012Z"/><path fill="#151515" d="M847.731 209.272c7.367-2.71 10.909 14.392 5.809 16.271-7.823 2.196-10.684-14.471-5.809-16.271Z"/><path stroke="#000" stroke-linecap="round" stroke-linejoin="round" stroke-width="9.39" d="m879.24 296.098 27.059-4.749"/><path fill="#000" d="m589.319 350.447-1.087-22.701 41.642-37.945c2.761-2.521 5.114-4.871 7.057-7.05 1.98-2.218 3.465-4.47 4.455-6.755 1.028-2.286 1.477-4.792 1.347-7.516-.144-2.989-.909-5.512-2.297-7.569-1.35-2.059-3.168-3.603-5.455-4.631-2.288-1.066-4.889-1.529-7.803-1.39-2.913.14-5.458.85-7.634 2.129-2.138 1.278-3.758 3.081-4.86 5.41-1.102 2.328-1.575 5.119-1.42 8.373l-29.965 1.435c-.392-8.173 1.106-15.298 4.494-21.376 3.387-6.078 8.353-10.867 14.898-14.366 6.545-3.499 14.319-5.464 23.324-5.895 9.308-.446 17.438.663 24.392 3.326 6.989 2.623 12.467 6.532 16.432 11.727 4.003 5.194 6.177 11.403 6.523 18.63.214 4.465-.5 8.955-2.142 13.47-1.644 4.478-4.74 9.499-9.29 15.064-4.55 5.565-11.075 12.248-19.575 20.05l-10.461 9.603.032.681 45.403-2.175 1.206 25.199-89.216 4.272Z"/></g><defs><clipPath id="a"><path fill="#fff" d="M0 0h1016.66v400H0z" transform="rotate(-3 1015.964 26.604)"/></clipPath></defs></svg>